<?xml version="1.0" encoding="UTF-8" standalone="no"?>
<!DOCTYPE svg PUBLIC "-//W3C//DTD SVG 1.1//EN"
 "http://www.w3.org/Graphics/SVG/1.1/DTD/svg11.dtd">
<!-- Generated by graphviz version 13.0.1 (0)
 -->
<!-- Title: SSFT Pages: 1 -->
<svg width="1155pt" height="353pt"
 viewBox="0.00 0.00 1155.00 353.00" xmlns="http://www.w3.org/2000/svg" xmlns:xlink="http://www.w3.org/1999/xlink">
<g id="graph0" class="graph" transform="scale(1 1) rotate(0) translate(4 349.17)">
<title>SSFT</title>
<polygon fill="white" stroke="none" points="-4,4 -4,-349.17 1150.72,-349.17 1150.72,4 -4,4"/>
<!-- init -->
<g id="node1" class="node">
<title>init</title>
<polygon fill="none" stroke="black" points="58,-189.92 0,-189.92 0,-131.92 58,-131.92 58,-189.92"/>
<text xml:space="preserve" text-anchor="middle" x="29" y="-156.25" font-family="Times,serif" font-size="14.00">N=18</text>
</g>
<!-- 0 -->
<g id="node2" class="node">
<title>0</title>
<ellipse fill="none" stroke="black" cx="129.16" cy="-160.92" rx="30.16" ry="30.16"/>
<ellipse fill="none" stroke="black" cx="129.16" cy="-160.92" rx="34.16" ry="34.16"/>
<text xml:space="preserve" text-anchor="middle" x="129.16" y="-156.25" font-family="Times,serif" font-size="14.00">bbb</text>
</g>
<!-- init&#45;&gt;0 -->
<g id="edge1" class="edge">
<title>init&#45;&gt;0</title>
<path fill="none" stroke="black" d="M58.39,-160.92C66.18,-160.92 74.81,-160.92 83.28,-160.92"/>
<polygon fill="black" stroke="black" points="83.12,-164.42 93.12,-160.92 83.12,-157.42 83.12,-164.42"/>
</g>
<!-- 2 -->
<g id="node9" class="node">
<title>2</title>
<ellipse fill="none" stroke="black" cx="297.83" cy="-272.92" rx="18" ry="18"/>
<ellipse fill="none" stroke="black" cx="297.83" cy="-272.92" rx="22" ry="22"/>
</g>
<!-- 0&#45;&gt;2 -->
<g id="edge11" class="edge">
<title>0&#45;&gt;2</title>
<path fill="none" stroke="black" d="M147.85,-189.65C156.67,-202.11 168.25,-216.08 181.33,-225.92 206.56,-244.92 240.55,-257.53 265.11,-264.86"/>
<polygon fill="black" stroke="black" points="263.97,-268.17 274.55,-267.54 265.88,-261.44 263.97,-268.17"/>
<text xml:space="preserve" text-anchor="middle" x="219.58" y="-265.87" font-family="Times,serif" font-size="14.00">&lt;b, a&gt;</text>
</g>
<!-- 1 -->
<g id="node13" class="node">
<title>1</title>
<ellipse fill="none" stroke="black" cx="297.83" cy="-214.92" rx="18" ry="18"/>
<text xml:space="preserve" text-anchor="middle" x="297.83" y="-210.25" font-family="Times,serif" font-size="14.00">1</text>
</g>
<!-- 0&#45;&gt;1 -->
<g id="edge9" class="edge">
<title>0&#45;&gt;1</title>
<path fill="none" stroke="black" d="M161.07,-174.25C167.7,-176.93 174.71,-179.63 181.33,-181.92 210.99,-192.21 245.71,-201.81 269.28,-207.98"/>
<polygon fill="black" stroke="black" points="268.18,-211.3 278.73,-210.41 269.92,-204.53 268.18,-211.3"/>
<text xml:space="preserve" text-anchor="middle" x="219.58" y="-208.2" font-family="Times,serif" font-size="14.00">&lt;a, &gt;</text>
</g>
<!-- 3 -->
<g id="node14" class="node">
<title>3</title>
<ellipse fill="none" stroke="black" cx="297.83" cy="-160.92" rx="18" ry="18"/>
<text xml:space="preserve" text-anchor="middle" x="297.83" y="-156.25" font-family="Times,serif" font-size="14.00">3</text>
</g>
<!-- 0&#45;&gt;3 -->
<g id="edge10" class="edge">
<title>0&#45;&gt;3</title>
<path fill="none" stroke="black" d="M163.49,-160.92C194.08,-160.92 238.93,-160.92 268.01,-160.92"/>
<polygon fill="black" stroke="black" points="267.9,-164.42 277.9,-160.92 267.9,-157.42 267.9,-164.42"/>
<text xml:space="preserve" text-anchor="middle" x="219.58" y="-164.87" font-family="Times,serif" font-size="14.00">&lt;:, &#45;16&gt;</text>
</g>
<!-- 4 -->
<g id="node16" class="node">
<title>4</title>
<ellipse fill="none" stroke="black" cx="297.83" cy="-106.92" rx="18" ry="18"/>
<text xml:space="preserve" text-anchor="middle" x="297.83" y="-102.25" font-family="Times,serif" font-size="14.00">4</text>
</g>
<!-- 0&#45;&gt;4 -->
<g id="edge13" class="edge">
<title>0&#45;&gt;4</title>
<path fill="none" stroke="black" d="M161.05,-147.41C167.69,-144.7 174.7,-141.98 181.33,-139.67 210.8,-129.41 245.3,-119.95 268.87,-113.87"/>
<polygon fill="black" stroke="black" points="269.51,-117.32 278.33,-111.46 267.78,-110.53 269.51,-117.32"/>
<text xml:space="preserve" text-anchor="middle" x="219.58" y="-143.62" font-family="Times,serif" font-size="14.00">&lt;=, &#45;16&gt;</text>
</g>
<!-- 5 -->
<g id="node18" class="node">
<title>5</title>
<ellipse fill="none" stroke="black" cx="297.83" cy="-52.92" rx="18" ry="18"/>
<text xml:space="preserve" text-anchor="middle" x="297.83" y="-48.25" font-family="Times,serif" font-size="14.00">5</text>
</g>
<!-- 0&#45;&gt;5 -->
<g id="edge17" class="edge">
<title>0&#45;&gt;5</title>
<path fill="none" stroke="black" d="M148.04,-132.06C156.82,-119.8 168.31,-106.17 181.33,-96.67 207.83,-77.34 243.9,-65.49 268.64,-59.09"/>
<polygon fill="black" stroke="black" points="269.43,-62.5 278.31,-56.73 267.77,-55.69 269.43,-62.5"/>
<text xml:space="preserve" text-anchor="middle" x="219.58" y="-100.62" font-family="Times,serif" font-size="14.00">&lt;c, bbbb&gt;</text>
</g>
<!-- 16 -->
<g id="node3" class="node">
<title>16</title>
<ellipse fill="none" stroke="black" cx="731.72" cy="-256.92" rx="22.8" ry="22.8"/>
<ellipse fill="none" stroke="black" cx="731.72" cy="-256.92" rx="26.8" ry="26.8"/>
<text xml:space="preserve" text-anchor="middle" x="731.72" y="-252.25" font-family="Times,serif" font-size="14.00">aa</text>
</g>
<!-- 17 -->
<g id="node10" class="node">
<title>17</title>
<ellipse fill="none" stroke="black" cx="868.62" cy="-257.92" rx="23.85" ry="23.85"/>
<text xml:space="preserve" text-anchor="middle" x="868.62" y="-253.25" font-family="Times,serif" font-size="14.00">17</text>
</g>
<!-- 16&#45;&gt;17 -->
<g id="edge3" class="edge">
<title>16&#45;&gt;17</title>
<path fill="none" stroke="black" d="M758.73,-257.12C779.86,-257.27 809.83,-257.49 832.99,-257.67"/>
<polygon fill="black" stroke="black" points="832.85,-261.16 842.88,-257.74 832.9,-254.16 832.85,-261.16"/>
<text xml:space="preserve" text-anchor="middle" x="801.64" y="-261.55" font-family="Times,serif" font-size="14.00">&lt;c, ;)&gt;</text>
</g>
<!-- 14 -->
<g id="node4" class="node">
<title>14</title>
<ellipse fill="none" stroke="black" cx="992.47" cy="-287.92" rx="18" ry="18"/>
<ellipse fill="none" stroke="black" cx="992.47" cy="-287.92" rx="22" ry="22"/>
</g>
<!-- 15 -->
<g id="node8" class="node">
<title>15</title>
<ellipse fill="none" stroke="black" cx="1121.97" cy="-287.92" rx="18" ry="18"/>
<ellipse fill="none" stroke="black" cx="1121.97" cy="-287.92" rx="22" ry="22"/>
</g>
<!-- 14&#45;&gt;15 -->
<g id="edge22" class="edge">
<title>14&#45;&gt;15</title>
<path fill="none" stroke="black" d="M1014.81,-287.92C1034.85,-287.92 1065.13,-287.92 1088.23,-287.92"/>
<polygon fill="black" stroke="black" points="1088.05,-291.42 1098.05,-287.92 1088.05,-284.42 1088.05,-291.42"/>
<text xml:space="preserve" text-anchor="middle" x="1057.22" y="-291.87" font-family="Times,serif" font-size="14.00">&lt;a, a&gt;</text>
</g>
<!-- 12 -->
<g id="node5" class="node">
<title>12</title>
<ellipse fill="none" stroke="black" cx="512.38" cy="-317.92" rx="22.8" ry="22.8"/>
<ellipse fill="none" stroke="black" cx="512.38" cy="-317.92" rx="26.8" ry="26.8"/>
<text xml:space="preserve" text-anchor="middle" x="512.38" y="-313.25" font-family="Times,serif" font-size="14.00">aa</text>
</g>
<!-- 13 -->
<g id="node12" class="node">
<title>13</title>
<ellipse fill="none" stroke="black" cx="801.64" cy="-317.92" rx="23.85" ry="23.85"/>
<text xml:space="preserve" text-anchor="middle" x="801.64" y="-313.25" font-family="Times,serif" font-size="14.00">13</text>
</g>
<!-- 12&#45;&gt;13 -->
<g id="edge23" class="edge">
<title>12&#45;&gt;13</title>
<path fill="none" stroke="black" d="M539.63,-317.92C591.61,-317.92 707.63,-317.92 765.88,-317.92"/>
<polygon fill="black" stroke="black" points="765.87,-321.42 775.87,-317.92 765.87,-314.42 765.87,-321.42"/>
<text xml:space="preserve" text-anchor="middle" x="622.05" y="-321.87" font-family="Times,serif" font-size="14.00">&lt;c, ;)&gt;</text>
</g>
<!-- 8 -->
<g id="node6" class="node">
<title>8</title>
<ellipse fill="none" stroke="black" cx="512.38" cy="-142.92" rx="18" ry="18"/>
<ellipse fill="none" stroke="black" cx="512.38" cy="-142.92" rx="22" ry="22"/>
</g>
<!-- 9 -->
<g id="node15" class="node">
<title>9</title>
<ellipse fill="none" stroke="black" cx="731.72" cy="-184.92" rx="18" ry="18"/>
<text xml:space="preserve" text-anchor="middle" x="731.72" y="-180.25" font-family="Times,serif" font-size="14.00">9</text>
</g>
<!-- 8&#45;&gt;9 -->
<g id="edge19" class="edge">
<title>8&#45;&gt;9</title>
<path fill="none" stroke="black" d="M525.99,-160.57C535.91,-173.83 549.33,-190.32 557.17,-193.92 604.96,-215.87 668.12,-203.76 703.58,-193.79"/>
<polygon fill="black" stroke="black" points="704.44,-197.19 713.02,-190.98 702.44,-190.48 704.44,-197.19"/>
<text xml:space="preserve" text-anchor="middle" x="622.05" y="-210.19" font-family="Times,serif" font-size="14.00">&lt;:, &#45;16&gt;</text>
</g>
<!-- 10 -->
<g id="node19" class="node">
<title>10</title>
<ellipse fill="none" stroke="black" cx="731.72" cy="-109.92" rx="23.85" ry="23.85"/>
<text xml:space="preserve" text-anchor="middle" x="731.72" y="-105.25" font-family="Times,serif" font-size="14.00">10</text>
</g>
<!-- 8&#45;&gt;10 -->
<g id="edge24" class="edge">
<title>8&#45;&gt;10</title>
<path fill="none" stroke="black" d="M534.61,-139.7C572.26,-133.98 651.03,-122.02 696.45,-115.13"/>
<polygon fill="black" stroke="black" points="696.91,-118.6 706.27,-113.63 695.86,-111.68 696.91,-118.6"/>
<text xml:space="preserve" text-anchor="middle" x="622.05" y="-139.74" font-family="Times,serif" font-size="14.00">&lt;=, &#45;16&gt;</text>
</g>
<!-- 6 -->
<g id="node7" class="node">
<title>6</title>
<ellipse fill="none" stroke="black" cx="512.38" cy="-52.92" rx="18" ry="18"/>
<ellipse fill="none" stroke="black" cx="512.38" cy="-52.92" rx="22" ry="22"/>
</g>
<!-- 7 -->
<g id="node17" class="node">
<title>7</title>
<ellipse fill="none" stroke="black" cx="731.72" cy="-38.92" rx="18" ry="18"/>
<text xml:space="preserve" text-anchor="middle" x="731.72" y="-34.25" font-family="Times,serif" font-size="14.00">7</text>
</g>
<!-- 6&#45;&gt;7 -->
<g id="edge20" class="edge">
<title>6&#45;&gt;7</title>
<path fill="none" stroke="black" d="M534.61,-51.55C573.86,-49.03 657.78,-43.62 702.04,-40.77"/>
<polygon fill="black" stroke="black" points="702.14,-44.27 711.89,-40.14 701.69,-37.29 702.14,-44.27"/>
<text xml:space="preserve" text-anchor="middle" x="622.05" y="-53.85" font-family="Times,serif" font-size="14.00">&lt;c, b&gt;</text>
</g>
<!-- 15&#45;&gt;15 -->
<g id="edge5" class="edge">
<title>15&#45;&gt;15</title>
<path fill="none" stroke="black" d="M1110.5,-306.85C1108.15,-317.76 1111.98,-327.92 1121.97,-327.92 1128.21,-327.92 1132.05,-323.95 1133.48,-318.31"/>
<polygon fill="black" stroke="black" points="1136.98,-318.36 1133.45,-308.37 1129.98,-318.38 1136.98,-318.36"/>
<text xml:space="preserve" text-anchor="middle" x="1121.97" y="-331.87" font-family="Times,serif" font-size="14.00">&lt;a, a&gt;</text>
</g>
<!-- 17&#45;&gt;14 -->
<g id="edge2" class="edge">
<title>17&#45;&gt;14</title>
<path fill="none" stroke="black" d="M892.25,-263.49C911.18,-268.16 938.41,-274.86 959.56,-280.06"/>
<polygon fill="black" stroke="black" points="958.57,-283.43 969.12,-282.42 960.24,-276.63 958.57,-283.43"/>
<text xml:space="preserve" text-anchor="middle" x="931.47" y="-282.17" font-family="Times,serif" font-size="14.00">&lt;d, &gt;</text>
</g>
<!-- 11 -->
<g id="node11" class="node">
<title>11</title>
<ellipse fill="none" stroke="black" cx="512.38" cy="-213.92" rx="23.85" ry="23.85"/>
<text xml:space="preserve" text-anchor="middle" x="512.38" y="-209.25" font-family="Times,serif" font-size="14.00">11</text>
</g>
<!-- 11&#45;&gt;16 -->
<g id="edge6" class="edge">
<title>11&#45;&gt;16</title>
<path fill="none" stroke="black" d="M535.03,-221.52C542.04,-223.8 549.88,-226.16 557.17,-227.92 603.59,-239.16 658.03,-247.48 693.39,-252.27"/>
<polygon fill="black" stroke="black" points="692.74,-255.71 703.11,-253.55 693.66,-248.77 692.74,-255.71"/>
<text xml:space="preserve" text-anchor="middle" x="622.05" y="-254.95" font-family="Times,serif" font-size="14.00">&lt;b, &gt;</text>
</g>
<!-- 11&#45;&gt;11 -->
<g id="edge4" class="edge">
<title>11&#45;&gt;11</title>
<path fill="none" stroke="black" d="M494.47,-230.25C487.77,-242.88 493.74,-255.77 512.38,-255.77 525.48,-255.77 532.32,-249.4 532.9,-241.22"/>
<polygon fill="black" stroke="black" points="536.36,-240.63 530.63,-231.72 529.55,-242.26 536.36,-240.63"/>
<text xml:space="preserve" text-anchor="middle" x="512.38" y="-259.72" font-family="Times,serif" font-size="14.00">&lt;a, a&gt;</text>
</g>
<!-- 13&#45;&gt;14 -->
<g id="edge7" class="edge">
<title>13&#45;&gt;14</title>
<path fill="none" stroke="black" d="M825.7,-316.44C855.3,-314.24 908.13,-309.33 952.47,-299.92 955.1,-299.36 957.81,-298.71 960.52,-297.99"/>
<polygon fill="black" stroke="black" points="961.32,-301.4 969.96,-295.27 959.38,-294.68 961.32,-301.4"/>
<text xml:space="preserve" text-anchor="middle" x="868.62" y="-318.76" font-family="Times,serif" font-size="14.00">&lt;d, &gt;</text>
</g>
<!-- 1&#45;&gt;12 -->
<g id="edge16" class="edge">
<title>1&#45;&gt;12</title>
<path fill="none" stroke="black" d="M313.92,-223.29C321.11,-227.21 329.86,-231.9 337.83,-235.92 385.81,-260.16 442.23,-286.41 477.4,-302.51"/>
<polygon fill="black" stroke="black" points="475.68,-305.57 486.23,-306.54 478.59,-299.2 475.68,-305.57"/>
<text xml:space="preserve" text-anchor="middle" x="402.7" y="-300.73" font-family="Times,serif" font-size="14.00">&lt;b, &gt;</text>
</g>
<!-- 1&#45;&gt;11 -->
<g id="edge8" class="edge">
<title>1&#45;&gt;11</title>
<path fill="none" stroke="black" d="M316.22,-214.84C351.26,-214.68 430.91,-214.3 476.89,-214.08"/>
<polygon fill="black" stroke="black" points="476.86,-217.58 486.84,-214.04 476.83,-210.58 476.86,-217.58"/>
<text xml:space="preserve" text-anchor="middle" x="402.7" y="-218.68" font-family="Times,serif" font-size="14.00">&lt;a, a&gt;</text>
</g>
<!-- 3&#45;&gt;8 -->
<g id="edge14" class="edge">
<title>3&#45;&gt;8</title>
<path fill="none" stroke="black" d="M316.22,-159.45C351.72,-156.44 432.99,-149.56 478.67,-145.69"/>
<polygon fill="black" stroke="black" points="478.82,-149.19 488.49,-144.86 478.23,-142.22 478.82,-149.19"/>
<text xml:space="preserve" text-anchor="middle" x="402.7" y="-161.43" font-family="Times,serif" font-size="14.00">&lt;), &#45;97&#45;104&#45;124&gt;</text>
</g>
<!-- 9&#45;&gt;8 -->
<g id="edge12" class="edge">
<title>9&#45;&gt;8</title>
<path fill="none" stroke="black" d="M713.68,-181.66C705.57,-180.12 695.75,-178.28 686.92,-176.67 629.32,-166.2 614.44,-166.12 557.17,-153.92 553.1,-153.05 548.83,-152.07 544.62,-151.06"/>
<polygon fill="black" stroke="black" points="545.82,-147.75 535.27,-148.74 544.14,-154.55 545.82,-147.75"/>
<text xml:space="preserve" text-anchor="middle" x="622.05" y="-180.62" font-family="Times,serif" font-size="14.00">&lt;), &#45;97&#45;104&#45;124&gt;</text>
</g>
<!-- 4&#45;&gt;8 -->
<g id="edge21" class="edge">
<title>4&#45;&gt;8</title>
<path fill="none" stroke="black" d="M315.85,-107.33C346.59,-108.4 413.22,-112.2 467.58,-125.67 472.22,-126.82 477.02,-128.35 481.68,-130.02"/>
<polygon fill="black" stroke="black" points="480.11,-133.16 490.7,-133.52 482.64,-126.64 480.11,-133.16"/>
<text xml:space="preserve" text-anchor="middle" x="402.7" y="-129.62" font-family="Times,serif" font-size="14.00">&lt;D, &#45;97&#45;115&#45;124&gt;</text>
</g>
<!-- 7&#45;&gt;6 -->
<g id="edge15" class="edge">
<title>7&#45;&gt;6</title>
<path fill="none" stroke="black" d="M716.96,-28.48C708.73,-22.89 697.78,-16.58 686.92,-13.67 631.22,1.24 611.03,6.93 557.17,-13.67 549.04,-16.78 541.47,-22.17 534.99,-27.98"/>
<polygon fill="black" stroke="black" points="532.61,-25.41 527.95,-34.92 537.52,-30.39 532.61,-25.41"/>
<text xml:space="preserve" text-anchor="middle" x="622.05" y="-17.62" font-family="Times,serif" font-size="14.00">&lt;c, hh&gt;</text>
</g>
<!-- 5&#45;&gt;6 -->
<g id="edge18" class="edge">
<title>5&#45;&gt;6</title>
<path fill="none" stroke="black" d="M316.22,-52.92C351.72,-52.92 432.99,-52.92 478.67,-52.92"/>
<polygon fill="black" stroke="black" points="478.49,-56.42 488.49,-52.92 478.49,-49.42 478.49,-56.42"/>
<text xml:space="preserve" text-anchor="middle" x="402.7" y="-56.87" font-family="Times,serif" font-size="14.00">&lt;c, hh&gt;</text>
</g>
<!-- 10&#45;&gt;8 -->
<g id="edge25" class="edge">
<title>10&#45;&gt;8</title>
<path fill="none" stroke="black" d="M708.8,-101.71C674.77,-90.33 607.88,-73.54 557.17,-95.67 547.34,-99.96 538.73,-107.67 531.8,-115.63"/>
<polygon fill="black" stroke="black" points="529.14,-113.37 525.66,-123.38 534.62,-117.72 529.14,-113.37"/>
<text xml:space="preserve" text-anchor="middle" x="622.05" y="-99.62" font-family="Times,serif" font-size="14.00">&lt;D, &#45;97&#45;115&#45;124&gt;</text>
</g>
</g>
</svg>
